# xmcd CD database file
#
# Track frame offsets:
#	150
#	5124
#	21717
#	36502
#	53702
#	74144
#	90139
#	106427
#	123264
#	142877
#	159859
#	181549
#	199179
#
# Disc length: 2851 seconds
#
# Revision: 1
# Processed by: cddbd v1.5PL3 Copyright (c) Steve Scherf et al.
# Submitted via: CDValet v3.31 - Copyright (c) 1997 Greg Leichner
#
DISCID=ad0b210d
DTITLE=Christina Millian - It´s About Time
DYEAR=1900
DGENRE=
TTITLE0=Intro
TTITLE1=Dip It Low
TTITLE2=I Need More
TTITLE3=Whatever U Want
TTITLE4=Someday One Day
TTITLE5=Highway
TTITLE6=Get Loose
TTITLE7=I´m Sorry
TTITLE8=L.O.V.E.
TTITLE9=Peaunut Butter and Jelly
TTITLE10=Miss You Like Crazy
TTITLE11=Oh Daddy
TTITLE12=I Can Be That Woman
EXTD=
EXTT0=
EXTT1=
EXTT2=
EXTT3=
EXTT4=
EXTT5=
EXTT6=
EXTT7=
EXTT8=
EXTT9=
EXTT10=
EXTT11=
EXTT12=
PLAYORDER=
